# xmcd CD database file
#
# Track frame offsets:
#	150
#	16790
#	39790
#	55235
#	81925
#	111417
#	130575
#	158455
#	178765
#	213692
#	257170
#	281325
#	305470
#
# Disc length: 4482 seconds
#
# Revision: 0
# Processed by: cddbd v1.5.2PL0 Copyright (c) Steve Scherf et al.
# Submitted via: CDex 1.51
#
DISCID=a711800d
DTITLE=T-Bone Walker - Roy Gaines - Feeling The Blues - Superman
DYEAR=1900
DGENRE=Blues
TTITLE0=I Hate To See You Go
TTITLE1=I Want A Little Girl
TTITLE2=Someone Is Going To Mistreat You
TTITLE3=Late Blues
TTITLE4=Ain't That Cold Baby
TTITLE5=Leaving You Behind
TTITLE6=Feeling The Blues
TTITLE7=Gee Baby Ain't I Good To You
TTITLE8=Superman
TTITLE9=Once I Was A Gambler
TTITLE10=Got The Boogie
TTITLE11=Stromy Monday Blues
TTITLE12=Happy Birthday Blues
EXTD=
EXTT0=
EXTT1=
EXTT2=
EXTT3=
EXTT4=
EXTT5=
EXTT6=
EXTT7=
EXTT8=
EXTT9=
EXTT10=
EXTT11=
EXTT12=
PLAYORDER=
